<?xml version="1.0" encoding="utf-8"?>
<!-- Generator: Adobe Illustrator 19.0.0, SVG Export Plug-In . SVG Version: 6.00 Build 0)  -->
<svg version="1.0" id="Layer_1" xmlns="http://www.w3.org/2000/svg" xmlns:xlink="http://www.w3.org/1999/xlink" x="0px" y="0px"
	 viewBox="0 0 300 300" style="enable-background:new 0 0 300 300;" xml:space="preserve">
<style type="text/css">
	.st0{fill:#FFFFFF;}
	.st1{fill:#C1272D;}
</style>
<g id="XMLID_27_">
	<g id="XMLID_33_">
		<circle class="st0" cx="150" cy="150" r="128.5"/>
	</g>
	<g id="XMLID_34_">
		<path d="M150,286.5c-75.3,0-136.5-61.2-136.5-136.5S74.7,13.5,150,13.5S286.5,74.7,286.5,150S225.3,286.5,150,286.5z M150,29.5
			C83.6,29.5,29.5,83.6,29.5,150c0,66.4,54.1,120.5,120.5,120.5c66.4,0,120.5-54.1,120.5-120.5C270.5,83.6,216.4,29.5,150,29.5z"/>
	</g>
</g>
<g id="XMLID_28_">
	
		<rect id="XMLID_41_" x="64.6" y="102.5" transform="matrix(0.7071 0.7071 -0.7071 0.7071 108.9628 -41.9648)" class="st1" width="81" height="16"/>
</g>
<g id="XMLID_30_">
	
		<rect id="XMLID_40_" x="97.1" y="70.1" transform="matrix(0.7071 0.7071 -0.7071 0.7071 108.9634 -41.9648)" class="st1" width="16" height="81"/>
</g>
<g id="XMLID_32_">
	
		<rect id="XMLID_39_" x="156.6" y="102.5" transform="matrix(0.7071 0.7071 -0.7071 0.7071 135.9044 -107.004)" class="st1" width="81" height="16"/>
</g>
<g id="XMLID_31_">
	
		<rect id="XMLID_38_" x="189.1" y="70.1" transform="matrix(0.7071 0.7071 -0.7071 0.7071 135.8941 -107.0011)" class="st1" width="16" height="81"/>
</g>
<g id="XMLID_37_">
	<path id="XMLID_42_" d="M116.3,207.8l11.9-28.1h7.1v28.1h3.1v5.9h-3.1v7.5h-6.5v-7.5h-12.5V207.8z M128.8,207.8v-15.4l-6.5,15.4
		H128.8z"/>
	<path id="XMLID_45_" d="M140.8,189.7c0-6.6,3.5-10.4,9.9-10.4c6.4,0,9.9,3.8,9.9,10.4v21.6c0,6.6-3.5,10.4-9.9,10.4
		c-6.4,0-9.9-3.8-9.9-10.4V189.7z M147.3,211.7c0,3,1.3,4.1,3.4,4.1c2.1,0,3.4-1.1,3.4-4.1v-22.4c0-3-1.3-4.1-3.4-4.1
		c-2.1,0-3.4,1.1-3.4,4.1V211.7z"/>
	<path id="XMLID_48_" d="M163.3,207.8l11.9-28.1h7.1v28.1h3.1v5.9h-3.1v7.5h-6.5v-7.5h-12.5V207.8z M175.8,207.8v-15.4l-6.5,15.4
		H175.8z"/>
</g>
</svg>
